<svg width="16" height="16" viewBox="0 0 16 16" fill="none" xmlns="http://www.w3.org/2000/svg">
<path d="M6.63889 7.9375C7.14931 8.08333 7.53819 8.35069 7.80556 8.73958C8.07292 9.12847 8.21875 9.59028 8.21875 10.125C8.21875 10.9514 7.90278 11.5833 7.27083 12.0208C6.73611 12.434 6.03125 12.6285 5.18056 12.6285H1V4H5.05903C5.88542 4 6.54167 4.14583 7.00347 4.4375C7.53819 4.77778 7.80556 5.36111 7.80556 6.16319C7.80556 6.98958 7.41667 7.57292 6.63889 7.9375ZM2.89583 5.48264V7.5H4.81597C5.15625 7.5 5.44792 7.42708 5.64236 7.25694C5.83681 7.08681 5.95833 6.81944 5.95833 6.45486C5.95833 5.82292 5.52083 5.48264 4.67014 5.48264H2.89583ZM4.91319 11.1701C5.83681 11.1701 6.32292 10.8056 6.32292 10.0278C6.32292 9.20139 5.86111 8.78819 4.96181 8.78819H2.89583V11.1701H4.91319ZM13.6389 5.3125V4.46181H10.1389V5.3125H13.6389ZM15 9.59028L14.9757 9.90625H10.4792C10.4792 10.441 10.6007 10.8299 10.8681 11.0972C11.1354 11.3889 11.5243 11.5104 12.0104 11.5104C12.3021 11.5104 12.5694 11.4375 12.8368 11.2917C13.1042 11.1458 13.2743 10.9514 13.3715 10.684H14.8785C14.4167 12.0937 13.4444 12.7743 11.9618 12.7743C10.9896 12.7743 10.2118 12.4826 9.62847 11.875C9.04514 11.2917 8.77778 10.4896 8.77778 9.51736C8.77778 8.90972 8.89931 8.35069 9.16667 7.84028C9.43403 7.35417 9.82292 6.94097 10.309 6.64931C10.7951 6.35764 11.3299 6.21181 11.9618 6.21181C12.8854 6.21181 13.6389 6.55208 14.2222 7.20833C14.7326 7.84028 15 8.64236 15 9.59028ZM10.4792 8.83681H13.2743C13.2257 8.42361 13.1042 8.10764 12.8854 7.86458C12.6424 7.62153 12.3264 7.5 11.9132 7.5C11.5 7.5 11.1597 7.62153 10.9167 7.86458C10.6493 8.10764 10.5035 8.44792 10.4792 8.83681Z" fill="white"/>
</svg>
