<svg width="16" height="16" viewBox="0 0 16 16" fill="none" xmlns="http://www.w3.org/2000/svg">
<path d="M12.875 3C13.1797 3 13.4375 3.13021 13.6719 3.36458C13.8828 3.625 14 3.91146 14 4.25V11.75C14 12.1146 13.8828 12.401 13.6719 12.6354C13.4375 12.8958 13.1797 13 12.875 13H3.125C2.79688 13 2.53906 12.8958 2.32813 12.6354C2.09375 12.401 2 12.1146 2 11.75V4.25C2 3.91146 2.09375 3.625 2.32813 3.36458C2.53906 3.13021 2.79688 3 3.125 3H12.875ZM12.875 4.25H3.125V5.31771C3.66406 5.8125 4.71875 6.72396 6.28906 8.07812L6.5 8.28646C6.80469 8.59896 7.0625 8.80729 7.25 8.91146C7.53125 9.14583 7.78906 9.25 8 9.25C8.1875 9.25 8.44531 9.14583 8.75 8.91146C8.9375 8.80729 9.17188 8.59896 9.5 8.28646L9.71094 8.07812C11.2578 6.75 12.3125 5.83854 12.875 5.31771V4.25ZM3.125 11.75H12.875V6.90625L10.1563 9.30208C9.75781 9.66667 9.42969 9.92708 9.19531 10.0833C8.77344 10.3698 8.375 10.5 8 10.5C7.625 10.5 7.20313 10.3698 6.78125 10.0833C6.54688 9.92708 6.21875 9.66667 5.82031 9.30208L3.125 6.90625V11.75Z" fill="white"/>
</svg>
