<svg width="16" height="16" viewBox="0 0 16 16" fill="none" xmlns="http://www.w3.org/2000/svg">
<path d="M4.67857 14V5.99107H2.1875V14H4.67857ZM3.44643 4.89286C3.82143 4.89286 4.16964 4.75893 4.46429 4.46429C4.73214 4.19643 4.89286 3.84821 4.89286 3.44643C4.89286 3.07143 4.73214 2.72321 4.46429 2.42857C4.16964 2.16071 3.82143 2 3.44643 2C3.04464 2 2.69643 2.16071 2.42857 2.42857C2.13393 2.72321 2 3.07143 2 3.44643C2 3.84821 2.13393 4.19643 2.42857 4.46429C2.69643 4.75893 3.04464 4.89286 3.44643 4.89286ZM14 14V9.60714C14 8.375 13.8125 7.46429 13.4643 6.875C12.9821 6.15179 12.1786 5.77679 11.0268 5.77679C10.4375 5.77679 9.95536 5.9375 9.52679 6.20536C9.125 6.44643 8.83036 6.74107 8.66964 7.08929H8.64286V5.99107H6.25893V14H8.72321V10.0357C8.72321 9.41964 8.80357 8.9375 8.99107 8.61607C9.20536 8.1875 9.60714 7.97321 10.1964 7.97321C10.7589 7.97321 11.1339 8.21429 11.3482 8.69643C11.4554 8.99107 11.5089 9.44643 11.5089 10.0893V14H14Z" fill="white"/>
</svg>
