<svg width="16" height="16" viewBox="0 0 16 16" fill="none" xmlns="http://www.w3.org/2000/svg">
<path d="M3.55785 5.09504V10.843C3.58471 11.0579 3.53099 11.2459 3.36983 11.407L2 13.0723V13.2872H5.86777V13.0723L4.49793 11.407C4.33678 11.2459 4.28306 11.0579 4.30992 10.843V5.87397L7.72107 13.2872H8.12397L11.0248 5.87397V11.7831C11.0248 11.8905 10.9979 11.9442 10.9979 11.9711C10.9979 11.9979 10.9711 12.0248 10.9174 12.0785L9.86983 13.0992V13.314H14.9731V13.0992L13.9525 12.1054C13.845 12.0517 13.8182 11.9442 13.845 11.8099V4.50413C13.8182 4.39669 13.845 4.28926 13.9525 4.20868L15 3.21488V3H11.4008L8.84917 9.39256L5.94835 3H2.16116V3.21488L3.36983 4.66529C3.47727 4.79959 3.55785 4.93388 3.55785 5.09504Z" fill="white"/>
</svg>
